<svg width="42" height="42" viewBox="0 0 42 42" fill="none" xmlns="http://www.w3.org/2000/svg">
<g id="mail" clip-path="url(#clip0_0_665)">
<path id="Vector" d="M0 0.240234V41.8609H41.2723V0.240234H0ZM38.7194 39.2864H2.55293V2.81471H38.7194V39.2864Z" fill="white"/>
<path id="Vector_2" d="M28.9678 12.4817H12.3045C10.8745 12.4817 9.71112 13.6355 9.71112 15.0536V27.0477C9.71112 28.4658 10.8745 29.6196 12.3045 29.6196H28.9678C30.3978 29.6196 31.5612 28.4658 31.5612 27.0477V15.0536C31.5612 13.6355 30.3978 12.4817 28.9678 12.4817ZM28.9678 27.349H12.3045C12.0943 27.349 11.91 27.2082 11.91 27.0477V16.6396L19.4463 23.2101C19.6008 23.3449 19.7973 23.4191 19.9996 23.4191L21.2724 23.4191C21.4746 23.4191 21.6712 23.3449 21.8258 23.2101L29.3625 16.6394V27.0478C29.3624 27.2082 29.178 27.349 28.9678 27.349ZM20.6362 21.1645L13.3061 14.7523H27.9662L20.6362 21.1645Z" fill="white"/>
</g>
<defs>
<clipPath id="clip0_0_665">
<rect width="41.2723" height="41.6206" fill="white" transform="translate(0 0.240234)"/>
</clipPath>
</defs>
</svg>
