<svg width="28" height="33" viewBox="0 0 28 33" fill="none" xmlns="http://www.w3.org/2000/svg">
<g id="mdi-light:heart">
<g id="Vector">
<path d="M6.74399 15.9203C6.31564 15.4348 5.98384 14.8511 5.77086 14.2084C5.55787 13.5657 5.46861 12.8788 5.50907 12.1938C5.54952 11.5088 5.71875 10.8416 6.00542 10.2368C6.29208 9.63196 6.68955 9.10359 7.17118 8.68709C7.6528 8.27059 8.20744 7.97559 8.79792 7.82186C9.38839 7.66813 10.001 7.65924 10.5948 7.79577C11.1886 7.9323 11.7497 8.2111 12.2406 8.61348C12.7315 9.01586 13.1407 9.53252 13.441 10.1288H14.559C14.8592 9.53252 15.2685 9.01586 15.7594 8.61348C16.2503 8.2111 16.8114 7.9323 17.4052 7.79577C17.9989 7.65924 18.6116 7.66813 19.2021 7.82186C19.7925 7.97559 20.3472 8.27059 20.8288 8.68709C21.3104 9.10359 21.7079 9.63196 21.9946 10.2368C22.2812 10.8416 22.4505 11.5088 22.4909 12.1938C22.5314 12.8788 22.4421 13.5657 22.2291 14.2084C22.0161 14.8511 21.6843 15.4348 21.256 15.9203L14 24.1446L6.74399 15.9214V15.9203ZM21.962 16.7248C22.4741 16.1444 22.8747 15.4503 23.1386 14.6859C23.4025 13.9216 23.524 13.1037 23.4954 12.2836C23.4669 11.4635 23.2888 10.659 22.9725 9.92065C22.6563 9.1823 22.2086 8.5261 21.6576 7.99331C21.1067 7.46053 20.4644 7.06268 19.7712 6.8248C19.078 6.58691 18.3488 6.51414 17.6296 6.61105C16.9104 6.70796 16.2166 6.97247 15.592 7.38792C14.9673 7.80338 14.4253 8.3608 14 9.02513C13.5747 8.3608 13.0326 7.80338 12.408 7.38792C11.7833 6.97247 11.0896 6.70796 10.3704 6.61105C9.65113 6.51414 8.92198 6.58691 8.22877 6.8248C7.53556 7.06268 6.89328 7.46053 6.34234 7.99331C5.7914 8.5261 5.34371 9.1823 5.02743 9.92065C4.71115 10.659 4.53312 11.4635 4.50453 12.2836C4.47594 13.1037 4.59742 13.9216 4.86133 14.6859C5.12523 15.4503 5.52585 16.1444 6.03799 16.7248L14 25.7457L21.962 16.7259V16.7248Z" fill="#FAF6F2"/>
<path fill-rule="evenodd" clip-rule="evenodd" d="M7.04399 15.7806L14 23.6638L21.0438 15.6799L21.256 15.9203L14 24.1446L6.74399 15.9214V15.9203C6.31564 15.4348 5.98384 14.8511 5.77086 14.2084C5.55787 13.5657 5.46861 12.8788 5.50907 12.1938C5.54952 11.5088 5.71875 10.8416 6.00542 10.2368C6.29208 9.63196 6.68955 9.10359 7.17118 8.68709C7.6528 8.27059 8.20744 7.97559 8.79792 7.82186C9.38839 7.66813 10.001 7.65924 10.5948 7.79577C11.1886 7.9323 11.7497 8.2111 12.2406 8.61348C12.7315 9.01586 13.1407 9.53252 13.441 10.1288H14.559C14.8592 9.53252 15.2685 9.01586 15.7594 8.61348C16.2503 8.2111 16.8114 7.9323 17.4052 7.79577C17.9989 7.65924 18.6116 7.66813 19.2021 7.82186C19.7925 7.97559 20.3472 8.27059 20.8288 8.68709C21.3104 9.10359 21.7079 9.63196 21.9946 10.2368C22.2812 10.8416 22.4505 11.5088 22.4909 12.1938C22.5314 12.8788 22.4421 13.5657 22.2291 14.2084C22.0161 14.8511 21.6843 15.4348 21.256 15.9203L21.0438 15.6799C21.4419 15.2287 21.7503 14.6862 21.9483 14.0889C22.1462 13.4916 22.2292 12.8532 22.1916 12.2165C22.154 11.5799 21.9967 10.9597 21.7303 10.3976C21.4638 9.8355 21.0944 9.34442 20.6468 8.95732C20.1992 8.57022 19.6837 8.29604 19.1349 8.15317C18.5861 8.01029 18.0167 8.00203 17.4648 8.12892C16.913 8.25581 16.3915 8.51494 15.9352 8.88891C15.479 9.26289 15.0986 9.74308 14.8196 10.2973L14.7332 10.4687H13.2668L13.1804 10.2973C12.9014 9.74308 12.521 9.26289 12.0647 8.88891C11.6085 8.51494 11.087 8.25581 10.5351 8.12892C9.98329 8.00203 9.41389 8.01029 8.86509 8.15317C8.3163 8.29604 7.80081 8.57022 7.35318 8.95732C6.90556 9.34442 6.53614 9.8355 6.26971 10.3976C6.00328 10.9597 5.846 11.5799 5.8084 12.2165C5.7708 12.8532 5.85375 13.4916 6.05171 14.0889C6.24966 14.6862 6.55803 15.2287 6.95615 15.6799L7.04399 15.7806ZM6.03799 16.7248C5.52585 16.1444 5.12523 15.4503 4.86133 14.6859C4.59742 13.9216 4.47594 13.1037 4.50453 12.2836C4.53312 11.4635 4.71115 10.659 5.02743 9.92065C5.34371 9.1823 5.7914 8.5261 6.34234 7.99331C6.89328 7.46053 7.53556 7.06268 8.22877 6.8248C8.92198 6.58691 9.65113 6.51414 10.3704 6.61105C11.0896 6.70796 11.7833 6.97247 12.408 7.38792C12.9428 7.74364 13.4171 8.20343 13.8094 8.74529C13.8753 8.83629 13.9388 8.92961 14 9.02513C14.0611 8.92961 14.1247 8.83629 14.1906 8.74529C14.5829 8.20343 15.0571 7.74364 15.592 7.38792C16.2166 6.97247 16.9104 6.70796 17.6296 6.61105C18.3488 6.51414 19.078 6.58691 19.7712 6.8248C20.4644 7.06268 21.1067 7.46053 21.6576 7.99331C22.2086 8.5261 22.6563 9.1823 22.9725 9.92065C23.2888 10.659 23.4669 11.4635 23.4954 12.2836C23.524 13.1037 23.4025 13.9216 23.1386 14.6859C22.8747 15.4503 22.4741 16.1444 21.962 16.7248V16.7259L14 25.7457L6.03799 16.7248ZM22.262 16.8633V16.8668L14 26.2264L5.82587 16.9652C5.28446 16.3517 4.86093 15.6178 4.58195 14.8098C4.30296 14.0018 4.17454 13.1372 4.20476 12.2702C4.23498 11.4032 4.42319 10.5527 4.75755 9.77221C5.0919 8.99167 5.56517 8.29797 6.14759 7.73474C6.73002 7.17151 7.40899 6.75093 8.14181 6.49945C8.87463 6.24797 9.64545 6.17104 10.4058 6.27349C11.1661 6.37594 11.8995 6.65555 12.5599 7.09475C13.1066 7.45839 13.5935 7.9249 14 8.47327C14.4065 7.9249 14.8934 7.45839 15.4401 7.09475C16.1005 6.65555 16.8339 6.37594 17.5942 6.27349C18.3545 6.17104 19.1253 6.24797 19.8582 6.49945C20.591 6.75093 21.27 7.17151 21.8524 7.73474C22.4348 8.29797 22.9081 8.99167 23.2424 9.77221C23.5768 10.5527 23.765 11.4032 23.7952 12.2702C23.8254 13.1372 23.697 14.0018 23.418 14.8098C23.1543 15.5736 22.7615 16.2711 22.262 16.8633Z" fill="#FAF6F2"/>
</g>
</g>
</svg>
