<svg width="31" height="31" viewBox="0 0 31 31" fill="none" xmlns="http://www.w3.org/2000/svg">
<path id="Vector 140" d="M8.92044 11.7515C10.4513 16.3571 16.0643 21.2186 19.6363 22.4979C22.0856 18.8132 23.4634 19.4277 25.7596 20.9629L28.8213 22.4979C31.7707 23.9766 31.1175 25.5684 30.3521 26.3361L27.2905 29.4065C25.4535 31.8629 20.912 30.9417 18.8709 30.1741C15.5541 28.6389 7.84886 23.8798 3.56252 17.1249C-0.723815 10.37 -0.264564 6.63429 0.500853 5.61081L3.56252 1.77261C5.85877 -1.29762 7.38961 0.237455 8.15502 1.77261L10.4513 5.61063C11.9821 7.91344 11.6561 9.15484 11.2167 9.44864C9.37969 10.6768 8.92044 11.4956 8.92044 11.7515Z" fill="white"/>
</svg>
